<svg width="23" height="23" viewBox="0 0 23 23" fill="none" xmlns="http://www.w3.org/2000/svg">
<circle cx="11.5" cy="11.5" r="11.5" fill="#3E3E3E"/>
<g clip-path="url(#clip0_1_320)">
<path fill-rule="evenodd" clip-rule="evenodd" d="M14.875 10.375H12.625V8.125C12.625 7.50344 12.1213 7 11.5 7C10.8787 7 10.375 7.50344 10.375 8.125V10.375H8.125C7.50372 10.375 7 10.8784 7 11.5C7 12.1216 7.50372 12.625 8.125 12.625H10.375V14.875C10.375 15.4966 10.8787 16 11.5 16C12.1213 16 12.625 15.4966 12.625 14.875V12.625H14.875C15.4963 12.625 16 12.1216 16 11.5C16 10.8784 15.4963 10.375 14.875 10.375Z" fill="white"/>
</g>
<defs>
<clipPath id="clip0_1_320">
<rect width="9" height="9" fill="white" transform="translate(7 7)"/>
</clipPath>
</defs>
</svg>
