<svg width="260" height="184" viewBox="0 0 260 184" fill="none" xmlns="http://www.w3.org/2000/svg">
<g clip-path="url(#clip0_91_61)">
<path d="M110.455 78.4604C110.046 78.1598 109.657 77.8348 109.287 77.4872L109.793 76.9497C110.14 77.2769 110.507 77.5829 110.892 77.866L110.455 78.4604Z" fill="#E4E4E4"/>
<path d="M107.259 75.0078C106.694 74.0972 106.249 73.1172 105.934 72.0922L106.639 71.8755C106.935 72.8396 107.354 73.7615 107.885 74.6181L107.259 75.0078ZM105.393 68.9361C105.386 68.7616 105.382 68.587 105.382 68.4122C105.382 67.5154 105.479 66.6213 105.67 65.7453L106.39 65.9034C106.21 66.7275 106.119 67.5686 106.119 68.4122C106.119 68.5767 106.123 68.7409 106.13 68.9051L105.393 68.9361ZM107.41 63.0694L106.754 62.7316C107.059 62.1401 107.409 61.5737 107.803 61.0377C108.045 60.7089 108.306 60.395 108.585 60.0975L109.122 60.6031C108.864 60.879 108.621 61.1702 108.397 61.4751C108.026 61.9796 107.696 62.5127 107.41 63.0694ZM111.488 58.7879L111.14 58.1373C112.092 57.6269 113.119 57.2736 114.183 57.0911L114.308 57.8185C113.322 57.9876 112.37 58.315 111.488 58.7879ZM120.125 58.7073C119.236 58.2491 118.279 57.9388 117.29 57.7888L117.401 57.0591C118.468 57.2212 119.502 57.5561 120.463 58.0509L120.125 58.7073Z" fill="#E4E4E4"/>
<path d="M123.339 61.6281C123.097 61.2265 122.818 60.8489 122.505 60.5006L123.052 60.0064C123.397 60.3898 123.705 60.8055 123.971 61.2478L123.339 61.6281Z" fill="#E4E4E4"/>
<path d="M95.076 53.7761L94.4822 53.3388C94.7771 52.9373 95.088 52.5403 95.4062 52.1588L95.9721 52.6318C95.6636 53.0018 95.3621 53.3869 95.076 53.7761Z" fill="#E4E4E4"/>
<path d="M131.603 52.9227C131.036 52.1356 130.409 51.3944 129.726 50.706L130.249 50.1859C130.959 50.9019 131.612 51.6728 132.201 52.4914L131.603 52.9227ZM97.9783 50.512L97.476 49.9717C98.211 49.2871 98.9885 48.6496 99.8036 48.063L100.234 48.6624C99.4439 49.2309 98.6905 49.8486 97.9783 50.512ZM127.525 48.8102C126.741 48.2339 125.922 47.7068 125.072 47.2319L125.432 46.5873C126.308 47.0771 127.153 47.6208 127.962 48.2153L127.525 48.8102ZM102.704 47.1128L102.353 46.4639C103.236 45.9855 104.148 45.5631 105.083 45.1989L105.35 45.8868C104.443 46.2397 103.56 46.6492 102.704 47.1128ZM122.443 45.9735C121.54 45.6102 120.616 45.3042 119.676 45.0573L119.862 44.3433C120.833 44.5981 121.787 44.9139 122.718 45.2888L122.443 45.9735ZM108.129 45.0021L107.949 44.2861C108.923 44.0423 109.911 43.8594 110.907 43.7383L110.996 44.4711C110.03 44.5884 109.072 44.7658 108.129 45.0021ZM116.815 44.4975C115.85 44.3716 114.879 44.3061 113.906 44.3016L113.91 43.5635C114.913 43.5683 115.915 43.6358 116.91 43.7657L116.815 44.4975Z" fill="#E4E4E4"/>
<path d="M133.708 56.729C133.526 56.2838 133.325 55.8407 133.11 55.4122L133.769 55.0807C133.992 55.5265 134.202 55.9872 134.39 56.45L133.708 56.729Z" fill="#E4E4E4"/>
<path d="M135.728 100.102L135.475 99.409C135.929 99.2426 136.387 99.0645 136.835 98.8796L137.116 99.5622C136.659 99.7508 136.192 99.9324 135.728 100.102Z" fill="#E4E4E4"/>
<path d="M124.234 102.357L124.207 101.619C125.163 101.584 126.13 101.511 127.08 101.401L127.165 102.134C126.196 102.246 125.209 102.321 124.234 102.357ZM121.294 102.348C120.317 102.307 119.331 102.226 118.364 102.108L118.453 101.375C119.401 101.491 120.368 101.57 121.325 101.611L121.294 102.348ZM130.07 101.682L129.928 100.958C130.867 100.774 131.811 100.55 132.732 100.293L132.93 101.004C131.99 101.266 131.028 101.494 130.07 101.682ZM115.462 101.636C114.505 101.441 113.545 101.206 112.607 100.936L112.81 100.227C113.73 100.491 114.671 100.722 115.609 100.913L115.462 101.636ZM109.816 100.011C108.902 99.6668 107.991 99.2817 107.107 98.866L107.421 98.1981C108.287 98.6053 109.18 98.9828 110.075 99.3199L109.816 100.011ZM104.498 97.5105C103.653 97.0278 102.814 96.504 102.004 95.9536L102.418 95.3431C103.212 95.8827 104.035 96.3962 104.863 96.8692L104.498 97.5105Z" fill="#E4E4E4"/>
<path d="M99.6326 94.1926C99.248 93.8782 98.867 93.5508 98.5001 93.2193L98.994 92.6713C99.352 92.9948 99.7237 93.3142 100.099 93.621L99.6326 94.1926Z" fill="#E4E4E4"/>
<path d="M79.2239 19.7736L78.8452 19.1403C79.2686 18.8866 79.7001 18.6354 80.1279 18.3937L80.4903 19.0364C80.0679 19.2751 79.6419 19.523 79.2239 19.7736Z" fill="#E4E4E4"/>
<path d="M150.194 29.8536C149.563 29.1169 148.898 28.3903 148.218 27.6941L148.746 27.1783C149.436 27.8859 150.112 28.6242 150.754 29.3728L150.194 29.8536ZM146.108 25.6658C145.388 25.0165 144.636 24.3807 143.873 23.7762L144.33 23.1974C145.105 23.8116 145.869 24.4576 146.601 25.1173L146.108 25.6658ZM141.523 22.0271C140.725 21.4666 139.905 20.9201 139.084 20.4031L139.477 19.7784C140.308 20.3021 141.139 20.8554 141.947 21.4231L141.523 22.0271ZM136.567 18.9054C135.719 18.43 134.848 17.97 133.976 17.5382L134.303 16.8768C135.186 17.314 136.069 17.7799 136.927 18.2615L136.567 18.9054ZM83.0786 17.6607L82.7497 17.0002C83.6315 16.5601 84.5365 16.1373 85.4394 15.7433L85.734 16.4198C84.8425 16.8088 83.9491 17.2263 83.0786 17.6607ZM131.319 16.3062C130.427 15.9199 129.513 15.5519 128.602 15.2125L128.859 14.5208C129.782 14.8646 130.708 15.2374 131.612 15.6287L131.319 16.3062ZM88.4494 15.3169L88.1898 14.6262C89.1106 14.2794 90.0538 13.9513 90.9936 13.6512L91.2176 14.3545C90.2898 14.6507 89.3585 14.9746 88.4494 15.3169ZM125.832 14.2604C124.905 13.9685 123.958 13.6967 123.016 13.4528L123.201 12.7382C124.155 12.9853 125.114 13.2607 126.053 13.5564L125.832 14.2604ZM94.0312 13.5347L93.8433 12.8209C94.7945 12.5699 95.7662 12.3398 96.7315 12.137L96.8829 12.8592C95.9299 13.0596 94.9704 13.2869 94.0312 13.5347ZM120.162 12.7912C119.211 12.5962 118.241 12.4234 117.278 12.2774L117.389 11.5477C118.364 11.6955 119.346 11.8706 120.31 12.068L120.162 12.7912ZM99.7651 12.3303L99.6507 11.6011C100.623 11.4481 101.613 11.318 102.593 11.2145L102.671 11.9485C101.703 12.0508 100.725 12.1793 99.7651 12.3303ZM114.372 11.9126C113.405 11.8162 112.422 11.7438 111.45 11.697L111.485 10.9599C112.47 11.0071 113.465 11.0805 114.445 11.1781L114.372 11.9126ZM105.592 11.7153L105.552 10.9784C106.536 10.925 107.534 10.8964 108.518 10.8934L108.521 11.6315C107.549 11.6345 106.563 11.6627 105.592 11.7153Z" fill="#E4E4E4"/>
<path d="M152.898 33.3351C152.619 32.9368 152.33 32.5385 152.039 32.1512L152.628 31.7077C152.924 32.1013 153.218 32.5062 153.502 32.911L152.898 33.3351Z" fill="#E4E4E4"/>
<path d="M119.327 152.692C118.838 152.629 118.349 152.562 117.861 152.491L117.966 151.761C118.451 151.831 118.935 151.898 119.42 151.96L119.327 152.692Z" fill="#E4E4E4"/>
<path d="M114.877 152.007C113.89 151.829 112.893 151.633 111.912 151.422L112.066 150.7C113.039 150.909 114.029 151.104 115.007 151.28L114.877 152.007ZM108.968 150.738C107.993 150.494 107.011 150.231 106.049 149.955L106.252 149.245C107.206 149.519 108.18 149.78 109.147 150.022L108.968 150.738ZM103.158 149.074C102.202 148.765 101.24 148.436 100.298 148.096L100.548 147.402C101.482 147.739 102.436 148.065 103.385 148.372L103.158 149.074ZM97.4734 147.022C96.543 146.651 95.6052 146.258 94.6861 145.854L94.9823 145.178C95.8938 145.578 96.8239 145.968 97.7467 146.337L97.4734 147.022ZM91.9397 144.592C91.0351 144.158 90.126 143.703 89.2374 143.239L89.5782 142.585C90.4595 143.045 91.3612 143.496 92.2584 143.927L91.9397 144.592ZM86.5818 141.796C85.7117 141.304 84.835 140.789 83.9759 140.265L84.3595 139.635C85.2116 140.155 86.0812 140.666 86.9442 141.153L86.5818 141.796ZM81.4225 138.648C80.5845 138.098 79.7439 137.526 78.9237 136.948L79.3481 136.344C80.1617 136.918 80.9956 137.485 81.8268 138.031L81.4225 138.648ZM76.481 135.163C75.6794 134.554 74.8815 133.921 74.1095 133.282L74.5791 132.714C75.3434 133.346 76.1332 133.972 76.9268 134.575L76.481 135.163ZM71.8176 131.305C71.0705 130.633 70.3277 129.937 69.6099 129.234L70.125 128.707C70.8356 129.401 71.5708 130.091 72.3104 130.756L71.8176 131.305ZM67.4905 127.073C66.8021 126.341 66.1201 125.584 65.4635 124.824L66.0211 124.341C66.671 125.093 67.346 125.842 68.0273 126.567L67.4905 127.073ZM63.5329 122.491C62.9083 121.704 62.2923 120.892 61.7021 120.08L62.2983 119.646C62.8825 120.45 63.4921 121.253 64.1104 122.033L63.5329 122.491Z" fill="#E4E4E4"/>
<path d="M59.9656 117.58C59.692 117.168 59.423 116.753 59.1586 116.336L59.7809 115.941C60.0427 116.353 60.3089 116.763 60.5796 117.171L59.9656 117.58Z" fill="#E4E4E4"/>
<path d="M217.669 31.9325L208.48 40.4017L215.783 28.1345C210.029 17.6892 200.619 8.66191 200.619 8.66191C200.619 8.66191 181.098 27.3866 181.098 42.1054C181.098 56.8243 189.838 61.9635 200.619 61.9635C211.401 61.9635 220.141 56.8242 220.141 42.1054C220.141 38.8293 219.172 35.3549 217.669 31.9325Z" fill="#F2F2F2"/>
<path d="M206.117 40.8602V41.5857C206.074 50.0189 204.653 56.5988 201.865 61.232C201.826 61.3003 201.783 61.3649 201.743 61.4331L201.431 61.2428L201.134 61.056C204.226 56.0529 205.32 48.9809 205.36 41.6252C205.363 41.3881 205.367 41.1475 205.363 40.9069C205.352 37.7929 205.162 34.643 204.857 31.5829C204.836 31.3459 204.811 31.1052 204.786 30.8646C204.362 26.8276 203.752 22.9702 203.128 19.6191C203.085 19.3821 203.039 19.145 202.992 18.9116C201.912 13.244 200.811 9.1387 200.559 8.23C200.531 8.11866 200.513 8.0576 200.509 8.04325L200.85 7.94627L200.854 7.94267L201.198 7.84569C201.202 7.86007 201.263 8.0648 201.363 8.44551C201.747 9.86778 202.744 13.7288 203.724 18.8218C203.767 19.0516 203.813 19.2887 203.856 19.5257C204.366 22.2446 204.865 25.2832 205.259 28.4725C205.36 29.2735 205.449 30.0637 205.528 30.843C205.557 31.0837 205.582 31.3243 205.604 31.5614C205.934 34.8693 206.105 37.9689 206.117 40.8602Z" fill="white"/>
<path d="M203.724 18.8218C203.483 18.8541 203.239 18.8865 202.992 18.9116C202.32 18.9809 201.644 19.0156 200.968 19.0158C198.088 19.0196 195.244 18.3765 192.645 17.1337C192.495 17.3241 192.344 17.5145 192.19 17.7084C194.924 19.0444 197.926 19.7373 200.968 19.7341C201.69 19.7339 202.411 19.6955 203.128 19.6192C203.372 19.594 203.616 19.5617 203.856 19.5258C205.841 19.2409 207.77 18.6559 209.579 17.791C209.424 17.5935 209.274 17.3995 209.127 17.2091C207.415 18.0101 205.594 18.5535 203.724 18.8218Z" fill="white"/>
<path d="M205.528 30.8431C205.281 30.8574 205.033 30.8646 204.786 30.8646C204.71 30.8682 204.631 30.8682 204.556 30.8682C201.435 30.8682 198.361 30.1128 195.595 28.6663C192.829 27.2197 190.453 25.125 188.67 22.5607C188.527 22.7726 188.383 22.9845 188.243 23.2C190.101 25.7947 192.55 27.9088 195.387 29.3672C198.224 30.8256 201.367 31.5864 204.556 31.5865C204.657 31.5865 204.757 31.5865 204.857 31.5829C205.109 31.5793 205.356 31.5722 205.604 31.5614C209.434 31.365 213.127 30.0682 216.241 27.8261C216.126 27.6142 216.011 27.4022 215.893 27.1904C212.867 29.3916 209.265 30.6611 205.528 30.8431Z" fill="white"/>
<path d="M206.117 40.8602C205.866 40.8817 205.614 40.8961 205.363 40.9069C205.094 40.9176 204.825 40.9248 204.556 40.9248C200.363 40.92 196.284 39.5554 192.93 37.0355C189.576 34.5155 187.127 30.9757 185.951 26.9461C185.789 27.2371 185.628 27.5244 185.474 27.8153C186.799 31.8356 189.356 35.3355 192.782 37.8178C196.207 40.3002 200.327 41.6387 204.556 41.6432C204.825 41.6432 205.094 41.6396 205.36 41.6252C205.614 41.618 205.866 41.6037 206.117 41.5857C211.189 41.1884 215.921 38.8761 219.355 35.1171C219.28 34.8513 219.193 34.5891 219.107 34.3234C215.791 38.1106 211.131 40.4553 206.117 40.8602Z" fill="white"/>
<path d="M29.5822 37.7969L35.5756 48.7675L25.4455 38.7135C13.9324 41.7839 2.91187 48.7487 2.91187 48.7487C2.91187 48.7487 16.3543 72.2322 30.6223 75.7824C44.8904 79.3327 51.9804 72.0806 54.581 61.6054C57.1816 51.1304 54.3079 41.399 40.0399 37.8487C36.8641 37.0585 33.2625 37.1615 29.5822 37.7969Z" fill="#F2F2F2"/>
<path d="M35.45 51.1741L36.1533 51.3491C44.3179 53.4251 50.3536 56.3925 54.1725 60.2184C54.2291 60.2732 54.2814 60.3306 54.3381 60.3854L54.0783 60.6427L53.8254 60.887C49.7214 56.6756 43.1299 53.9067 36.009 52.0941C35.7801 52.0334 35.5477 51.9719 35.3136 51.9173C32.2924 51.1767 29.1931 50.6017 26.1532 50.1598C25.9182 50.1235 25.6789 50.0899 25.4395 50.0563C21.424 49.4938 17.5376 49.1559 14.1387 48.9541C13.8985 48.9388 13.6575 48.9269 13.4199 48.9159C7.66539 48.598 3.4202 48.6779 2.47876 48.7027C2.36391 48.7037 2.3004 48.7064 2.2856 48.7065L2.27381 48.3519L2.27119 48.3476L2.26025 47.9896C2.27506 47.9895 2.48823 47.9797 2.8815 47.9739C4.35281 47.944 8.33616 47.9063 13.5094 48.1832C13.7426 48.1968 13.9836 48.2087 14.2238 48.224C16.9823 48.3849 20.0481 48.6333 23.235 49.0192C24.0356 49.1148 24.8232 49.2183 25.5978 49.3296C25.8379 49.3597 26.0773 49.3934 26.3123 49.4296C29.5985 49.9068 32.6444 50.4883 35.45 51.1741Z" fill="white"/>
<path d="M13.5094 48.1832C13.4828 48.4245 13.4553 48.6693 13.4199 48.9159C13.3249 49.5858 13.1957 50.2503 13.0328 50.9069C12.3418 53.7061 11.0324 56.3143 9.20084 58.5396C9.34901 58.7319 9.49721 58.9242 9.648 59.1208C11.6025 56.7869 12.9984 54.0367 13.7292 51.0802C13.903 50.3792 14.0397 49.6695 14.1387 48.9541C14.1732 48.711 14.2007 48.4662 14.2238 48.224C14.4262 46.2276 14.3246 44.2119 13.9224 42.246C13.6937 42.3483 13.4694 42.4479 13.2493 42.5449C13.6129 44.4013 13.7005 46.3012 13.5094 48.1832Z" fill="white"/>
<path d="M25.5978 49.3295C25.552 49.5735 25.4992 49.8157 25.4395 50.0562C25.4249 50.1303 25.4058 50.207 25.3876 50.2802C24.6349 53.3122 23.1611 56.1171 21.0916 58.4557C19.0222 60.7942 16.4186 62.5971 13.5028 63.7106C13.6736 63.9012 13.8444 64.0917 14.0196 64.2796C16.9829 63.1001 19.623 61.2308 21.721 58.8264C23.819 56.422 25.3146 53.5518 26.084 50.4535C26.1082 50.3559 26.1324 50.2583 26.1532 50.1598C26.2103 49.915 26.263 49.6727 26.3123 49.4296C27.0458 45.6606 26.6795 41.7599 25.2571 38.1938C25.024 38.2542 24.7909 38.3147 24.5569 38.3786C25.9609 41.8497 26.3226 45.6556 25.5978 49.3295Z" fill="white"/>
<path d="M35.45 51.1741C35.4103 51.4233 35.3637 51.6707 35.3136 51.9173C35.2591 52.1813 35.2012 52.4445 35.1363 52.7059C34.1201 56.779 31.8134 60.413 28.5617 63.0638C25.3099 65.7146 21.2879 67.2396 17.098 67.4105C17.3411 67.6375 17.5806 67.8637 17.8254 68.0838C22.0423 67.7658 26.0518 66.1255 29.2844 63.396C32.517 60.6666 34.8082 56.9867 35.8326 52.8792C35.8975 52.6178 35.9589 52.3555 36.009 52.0941C36.0635 51.8449 36.1102 51.5974 36.1533 51.3491C36.9917 46.325 35.8917 41.1696 33.076 36.9269C32.8002 36.9361 32.5253 36.9565 32.2468 36.976C35.1181 41.1116 36.2671 46.2045 35.45 51.1741Z" fill="white"/>
<path d="M46.3672 107.5L44.1216 105.211L46.875 100.996L51.5875 93.1428C51.4336 92.8045 51.3858 92.4273 51.4506 92.0612C51.5154 91.6952 51.6896 91.3574 51.9503 91.0926C52.211 90.8279 52.5459 90.6486 52.9106 90.5785C53.2753 90.5084 53.6527 90.5507 53.9928 90.7C54.3329 90.8493 54.6197 91.0984 54.8153 91.4145C55.0109 91.7305 55.1061 92.0985 55.0882 92.4699C55.0703 92.8412 54.9403 93.1984 54.7152 93.4941C54.4902 93.7899 54.1808 94.0103 53.8279 94.1261L49.9381 102.51L46.3672 107.5Z" fill="#A0616A"/>
<path d="M43.8797 112.726C43.616 113.134 43.2403 113.459 42.7975 113.659C42.3548 113.86 41.8636 113.929 41.3828 113.857C40.9252 113.803 40.4933 113.617 40.1402 113.32C39.787 113.024 39.528 112.631 39.3949 112.189C39.2969 111.876 39.2684 111.545 39.3113 111.219C39.3542 110.893 39.4676 110.581 39.6435 110.304C41.1457 107.768 43.9163 104.42 43.9441 104.387L43.9882 104.334L48.6611 105.347L43.8797 112.726Z" fill="#6F90FF"/>
<path d="M83.8568 21.347L83.3072 21.5164L78.672 6.44418C77.9605 4.13058 76.3602 2.19471 74.2229 1.06243C72.0857 -0.0698547 69.5868 -0.305798 67.2758 0.406505L35.3794 10.2379C34.2351 10.5906 33.1714 11.1654 32.2491 11.9297C31.3267 12.6939 30.5637 13.6326 30.0037 14.692C29.4437 15.7514 29.0976 16.9109 28.9852 18.1043C28.8728 19.2976 28.9962 20.5014 29.3485 21.647L54.7774 104.335C55.4889 106.648 57.0893 108.584 59.2265 109.716C61.3637 110.849 63.8626 111.085 66.1736 110.372L98.07 100.541C100.381 99.8286 102.315 98.2264 103.446 96.0868C104.577 93.9472 104.812 91.4454 104.101 89.1318L86.6066 32.2451L87.1561 32.0757L83.8568 21.347Z" fill="#3F3D56"/>
<path d="M68.3253 2.56767L64.1618 3.85099C64.4978 4.26193 64.7277 4.74929 64.8312 5.27013C64.9347 5.79097 64.9087 6.32931 64.7555 6.83773C64.6023 7.34614 64.3265 7.80903 63.9525 8.18561C63.5785 8.56219 63.1177 8.84091 62.6107 8.99721L44.3377 14.6295C43.8307 14.7857 43.2931 14.8147 42.7723 14.7139C42.2515 14.6132 41.7634 14.3857 41.3511 14.0516C40.9387 13.7175 40.6148 13.287 40.4078 12.7981C40.2008 12.3091 40.1171 11.7767 40.164 11.2478L36.2753 12.4464C34.5495 12.9783 33.1054 14.1748 32.2608 15.7727C31.4162 17.3705 31.2402 19.2388 31.7715 20.9666L57.1631 103.533C57.6944 105.261 58.8895 106.706 60.4856 107.552C62.0816 108.397 63.9478 108.574 65.6736 108.042L97.7237 98.163C99.4495 97.6311 100.894 96.4346 101.738 94.8367C102.583 93.2389 102.759 91.3706 102.227 89.6428L76.8359 7.07652C76.3045 5.34876 75.1094 3.90308 73.5134 3.0575C71.9173 2.21193 70.0511 2.03573 68.3253 2.56767Z" fill="white"/>
<path d="M197.369 182.833L122.546 155.906C120.773 155.266 119.326 153.948 118.523 152.241C117.72 150.534 117.626 148.578 118.261 146.802L157.267 38.1677C157.906 36.393 159.223 34.9446 160.928 34.1405C162.632 33.3363 164.586 33.242 166.36 33.8782L241.184 60.805C242.957 61.4452 244.403 62.7633 245.207 64.47C246.01 66.1768 246.104 68.1328 245.469 69.909L206.463 178.543C205.823 180.318 204.507 181.766 202.802 182.57C201.097 183.375 199.143 183.469 197.369 182.833Z" fill="#3F3D56"/>
<path d="M199.035 178.607L123.948 151.586C123.402 151.388 122.956 150.982 122.708 150.456C122.46 149.93 122.431 149.327 122.627 148.779L161.891 39.4258C162.088 38.8787 162.494 38.4322 163.02 38.1843C163.545 37.9364 164.148 37.9073 164.695 38.1035L239.782 65.1251C240.328 65.3224 240.774 65.7287 241.022 66.2549C241.269 66.781 241.298 67.3839 241.102 67.9315L201.838 177.285C201.641 177.832 201.235 178.279 200.71 178.527C200.184 178.774 199.582 178.804 199.035 178.607Z" fill="white"/>
<path d="M202.751 49.8955C203.085 49.8955 203.356 49.6244 203.356 49.2901C203.356 48.9557 203.085 48.6847 202.751 48.6847C202.417 48.6847 202.147 48.9557 202.147 49.2901C202.147 49.6244 202.417 49.8955 202.751 49.8955Z" fill="white"/>
<path d="M78.4605 65.8385C84.8376 59.4542 84.8376 49.1032 78.4605 42.7188C72.0834 36.3345 61.7441 36.3345 55.367 42.7188C48.9899 49.1031 48.9899 59.4542 55.367 65.8385C61.7441 72.2229 72.0834 72.2229 78.4605 65.8385Z" fill="#6F90FF"/>
<path d="M68.6235 62.0804L60.5409 56.591L61.2467 55.5501L67.9381 60.0949L72.7744 44.9486L73.9707 45.3314L68.6235 62.0804Z" fill="white"/>
<path d="M196.548 121.569C204.625 113.483 204.625 100.373 196.548 92.2868C188.471 84.2006 175.375 84.2006 167.298 92.2868C159.221 100.373 159.221 113.483 167.298 121.569C175.375 129.656 188.471 129.656 196.548 121.569Z" fill="#6F90FF"/>
<path d="M176.935 115.726L173.965 103.704L175.51 103.322L177.969 113.275L195.335 103.109L196.138 104.483L176.935 115.726Z" fill="white"/>
<path d="M47.6689 168.832H50.4611L51.7894 158.051L47.6685 158.051L47.6689 168.832Z" fill="#A0616A"/>
<path d="M46.9568 167.92L52.4554 167.919C53.3847 167.92 54.2762 168.289 54.9334 168.947C55.5905 169.605 55.9597 170.497 55.9598 171.428V171.542L46.9569 171.542L46.9568 167.92Z" fill="#2F2E41"/>
<path d="M25.9287 167.622L28.6895 168.04L31.6129 157.578L27.9938 156.962L25.9287 167.622Z" fill="#A0616A"/>
<path d="M25.3609 166.613L30.7977 167.436C31.7166 167.575 32.5429 168.074 33.0944 168.823C33.6459 169.572 33.8778 170.509 33.7389 171.429L33.7219 171.542L24.8202 170.195L25.3609 166.613Z" fill="#2F2E41"/>
<path d="M42.1002 118.005L48.593 116.589L52.2347 127.011L52.3486 167.253L47.0486 167.22L44.8331 134.649L30.7131 164.745L25.0195 164.061L37.4315 131.799C37.4315 131.799 36.7482 126.099 38.9118 123.249L38.4563 120.285L42.1002 118.005Z" fill="#2F2E41"/>
<path d="M36.0049 110.342C35.8573 109.898 35.8416 109.421 35.9598 108.968C36.0779 108.516 36.3248 108.107 36.6704 107.792L38.0428 106.544L41.9119 105.891L44.3311 105.451L50.0675 119.787L38.7756 121.075C37.9468 120.895 37.6158 120.442 38.098 119.539L36.0049 110.342Z" fill="#6F90FF"/>
<path d="M49.677 107.968L49.3539 104.776L54.1349 103.21L62.7172 100.03C62.8083 99.6697 63.0065 99.3454 63.2857 99.1003C63.5649 98.8551 63.9118 98.7006 64.2806 98.6571C64.6494 98.6136 65.0227 98.6833 65.3512 98.8568C65.6796 99.0304 65.9476 99.2997 66.1198 99.629C66.2921 99.9584 66.3603 100.332 66.3157 100.701C66.271 101.071 66.1154 101.417 65.8696 101.696C65.6237 101.975 65.2992 102.172 64.9388 102.262C64.5785 102.352 64.1994 102.33 63.8516 102.2L55.58 106.309L49.677 107.968Z" fill="#A0616A"/>
<path d="M44.472 110.49C44.011 110.644 43.5154 110.661 43.0445 110.541C42.5737 110.42 42.1474 110.167 41.8167 109.81C41.4935 109.481 41.2731 109.065 41.1825 108.613C41.092 108.161 41.1353 107.692 41.3071 107.264C41.4263 106.958 41.6108 106.682 41.8477 106.454C42.0845 106.227 42.3681 106.054 42.6785 105.948C45.4341 104.909 49.6875 104.03 49.73 104.022L49.7977 104.008L52.8118 107.724L44.472 110.49Z" fill="#6F90FF"/>
<path d="M40.2139 104.519C42.5595 104.519 44.461 102.615 44.461 100.267C44.461 97.9183 42.5595 96.0146 40.2139 96.0146C37.8683 96.0146 35.9667 97.9183 35.9667 100.267C35.9667 102.615 37.8683 104.519 40.2139 104.519Z" fill="#A0616A"/>
<path d="M36.7753 106.324C36.1167 106.324 35.4587 106.284 34.805 106.204L34.7153 106.193L34.0312 102.475C33.7411 100.898 34.0646 99.2708 34.9353 97.9258C35.8061 96.5808 37.158 95.6206 38.7137 95.2421C38.8175 95.2157 38.9265 95.2186 39.0288 95.2503C39.1311 95.282 39.2227 95.3413 39.2935 95.4218L39.4566 95.3648C40.0813 95.1468 40.7428 95.054 41.4033 95.0918C42.0637 95.1297 42.7103 95.2974 43.3061 95.5854C43.9018 95.8734 44.435 96.2761 44.8753 96.7704C45.3156 97.2648 45.6544 97.8411 45.8722 98.4665L45.9126 98.5826L44.8238 98.9627C44.4845 99.0812 44.1759 99.2738 43.9204 99.5267C43.6648 99.7796 43.4688 100.086 43.3466 100.425C43.2243 100.763 43.1789 101.124 43.2137 101.482C43.2484 101.84 43.3624 102.186 43.5474 102.494L44.6607 104.35L44.5422 104.409C42.1394 105.649 39.4786 106.305 36.7753 106.324Z" fill="#2F2E41"/>
<path d="M93.8752 171.945H0.245747C0.180571 171.945 0.118064 171.919 0.0719774 171.873C0.0258909 171.827 0 171.764 0 171.699C0 171.633 0.0258909 171.571 0.0719774 171.525C0.118064 171.479 0.180571 171.453 0.245747 171.453H93.8752C93.9404 171.453 94.0029 171.479 94.049 171.525C94.0951 171.571 94.121 171.633 94.121 171.699C94.121 171.764 94.0951 171.827 94.049 171.873C94.0029 171.919 93.9404 171.945 93.8752 171.945Z" fill="#CACACA"/>
<path d="M259.754 184H166.125C166.06 184 165.997 183.974 165.951 183.928C165.905 183.882 165.879 183.819 165.879 183.754C165.879 183.689 165.905 183.626 165.951 183.58C165.997 183.534 166.06 183.508 166.125 183.508H259.754C259.819 183.508 259.882 183.534 259.928 183.58C259.974 183.626 260 183.689 260 183.754C260 183.819 259.974 183.882 259.928 183.928C259.882 183.974 259.819 184 259.754 184Z" fill="#CACACA"/>
<path d="M208.902 141.061C209.11 140.887 209.276 140.669 209.391 140.424C209.506 140.178 209.565 139.91 209.565 139.639C209.565 139.368 209.505 139.1 209.391 138.855C209.276 138.609 209.109 138.392 208.902 138.218L207.524 113.954L203.595 114.843L206.193 138.54C205.924 138.908 205.799 139.363 205.843 139.817C205.886 140.272 206.095 140.694 206.429 141.005C206.763 141.316 207.199 141.493 207.655 141.504C208.111 141.514 208.554 141.356 208.902 141.061Z" fill="#9F616A"/>
<path d="M224.856 144.221C224.643 144.054 224.468 143.843 224.345 143.601C224.221 143.36 224.152 143.095 224.143 142.824C224.133 142.553 224.183 142.283 224.288 142.033C224.394 141.784 224.553 141.56 224.754 141.379L225.253 117.081L229.212 117.828L227.473 141.603C227.755 141.961 227.896 142.411 227.869 142.867C227.841 143.322 227.648 143.752 227.326 144.075C227.003 144.398 226.574 144.591 226.119 144.618C225.664 144.644 225.215 144.503 224.856 144.221Z" fill="#9F616A"/>
<path d="M226.951 180.332L230.034 180.331L230.913 173.132L226.951 173.132L226.951 180.332Z" fill="#9F616A"/>
<path d="M226.165 179.324L232.236 179.324H232.236C233.262 179.324 234.246 179.732 234.972 180.458C235.697 181.184 236.105 182.17 236.105 183.197V183.323L226.165 183.323L226.165 179.324Z" fill="#2F2E41"/>
<path d="M207.715 180.332L210.798 180.331L211.677 168.427H207.714L207.715 180.332Z" fill="#9F616A"/>
<path d="M206.929 179.324L213 179.324C214.026 179.324 215.01 179.732 215.736 180.458C216.461 181.184 216.869 182.17 216.869 183.197V183.323L206.929 183.323L206.929 179.324Z" fill="#2F2E41"/>
<path d="M220.133 103.486C222.918 103.486 225.176 101.226 225.176 98.4371C225.176 95.6486 222.918 93.388 220.133 93.388C217.348 93.388 215.09 95.6486 215.09 98.4371C215.09 101.226 217.348 103.486 220.133 103.486Z" fill="#9F616A"/>
<path d="M226.543 110.088C226.543 110.088 228.784 110.275 228.971 111.397C229.158 112.519 228.971 115.885 228.971 115.885C228.971 115.885 230.466 120.373 228.971 121.495C227.477 122.617 223.554 122.804 223.554 122.804L226.543 110.088Z" fill="#E4E4E4"/>
<path d="M207.49 135.521L205.435 138.887C205.435 138.887 206.183 153.66 206.369 154.034C206.518 154.254 206.584 154.519 206.556 154.782V156.839L207.117 174.792C207.117 174.792 205.622 175.54 207.49 176.101C209.358 176.662 211.786 176.849 212.16 174.979C212.534 173.109 212.551 157.53 212.534 157.026L212.72 156.278L215.709 145.245L222.62 160.579L226.73 177.784C226.73 177.784 232.949 178.503 231.828 176.072C230.708 173.641 228.037 155.53 228.037 155.53C228.037 155.53 227.477 153.66 227.477 153.286C227.477 152.912 227.29 152.725 227.29 152.351C227.29 151.977 227.103 150.855 227.103 150.855L225.796 139.074L207.49 135.521Z" fill="#2F2E41"/>
<path d="M209.358 106.909C209.358 106.909 207.117 106.722 206.556 108.592C205.996 110.462 201.326 117.568 202.26 118.316C203.194 119.064 210.292 121.682 210.479 121.495C210.666 121.308 209.358 106.909 209.358 106.909Z" fill="#E4E4E4"/>
<path d="M226.006 95.2173C225.794 94.4285 225.496 93.6401 224.888 93.0952C224.273 92.5471 223.483 92.2356 222.659 92.2161C221.719 91.6707 220.664 91.3545 219.579 91.2929C218.495 91.2313 217.411 91.4261 216.415 91.8617C216.308 91.6439 216.133 91.4661 215.918 91.3541C215.858 91.8734 215.798 92.3927 215.738 92.9119C215.506 92.7374 215.275 92.5629 215.043 92.3883C215.032 92.6956 215.02 93.003 215.009 93.3103C214.796 93.1275 214.584 92.9448 214.372 92.762C214.327 93.8503 215.231 94.7926 216.254 95.1636C217.277 95.5346 218.399 95.4662 219.486 95.4148C220.022 95.3894 220.634 95.3985 220.996 95.7958C221.375 96.212 221.304 96.8501 221.313 97.4135C221.326 98.206 222.139 97.8178 222.546 98.4973C222.722 98.7223 222.831 98.9918 222.863 99.2756C222.824 99.5331 222.731 99.7793 222.589 99.9976C222.289 100.618 221.693 102.548 221.977 103.176C222.504 102.88 223.032 102.585 223.559 102.29C223.559 102.29 227.031 99.0355 226.006 95.2173Z" fill="#2F2E41"/>
<path d="M225.049 120.934C225.049 120.934 228.784 111.397 228.598 110.649C228.411 109.901 223.75 106.832 223.75 106.832C223.573 106.81 223.404 106.789 223.234 106.767C223.26 106.701 223.277 106.632 223.285 106.562L223.366 105.83C223.39 105.603 223.324 105.375 223.181 105.197C223.038 105.018 222.831 104.904 222.604 104.879L216.681 104.229C216.454 104.204 216.226 104.271 216.048 104.414C215.87 104.557 215.756 104.765 215.731 104.992L215.662 105.625C215.35 105.548 215.335 105.517 215.335 105.517C215.335 105.517 210.105 106.348 208.798 106.722C207.49 107.096 208.611 121.308 208.611 121.308C208.611 121.308 207.677 134.399 207.117 134.773C206.556 135.147 207.117 134.96 206.556 136.456C206.482 136.653 207.514 135.551 207.957 135.801C210.872 137.446 222.69 141.293 225.609 141.131C226.542 131.381 224.675 128.228 224.675 128.228L225.049 120.934Z" fill="#E4E4E4"/>
</g>
<defs>
<clipPath id="clip0_91_61">
<rect width="260" height="184" fill="white"/>
</clipPath>
</defs>
</svg>
