<svg width="22" height="22" viewBox="0 0 18 18" fill="none" xmlns="http://www.w3.org/2000/svg">
<g clip-path="url(#clip0_1_73)">
<path fill-rule="evenodd" clip-rule="evenodd" d="M15.75 6.75H11.25V2.25C11.25 1.00688 10.2426 0 9 0C7.75744 0 6.75 1.00688 6.75 2.25V6.75H2.25C1.00744 6.75 0 7.75688 0 9C0 10.2431 1.00744 11.25 2.25 11.25H6.75V15.75C6.75 16.9931 7.75744 18 9 18C10.2426 18 11.25 16.9931 11.25 15.75V11.25H15.75C16.9926 11.25 18 10.2431 18 9C18 7.75688 16.9926 6.75 15.75 6.75Z" fill="white"/>
</g>
<defs>
<clipPath id="clip0_1_73">
<rect width="18" height="18" fill="white"/>
</clipPath>
</defs>
</svg>
