<svg width="20" height="23" viewBox="0 0 16 19" fill="none" xmlns="http://www.w3.org/2000/svg">
<path d="M0.111145 4.79843C0.111145 4.37643 0.412008 4.03432 0.783143 4.03432L3.10398 4.03391C3.5651 4.02061 3.97191 3.68721 4.12881 3.19398C4.13294 3.18101 4.13768 3.16502 4.15469 3.10698L4.25469 2.76578C4.31589 2.55659 4.3692 2.37433 4.44381 2.21142C4.73854 1.56784 5.28385 1.12093 5.914 1.00651C6.0735 0.977541 6.24243 0.977663 6.43634 0.977802H9.46605C9.65996 0.977663 9.82886 0.977541 9.98836 1.00651C10.6185 1.12093 11.1638 1.56784 11.4585 2.21142C11.5332 2.37433 11.5865 2.55659 11.6476 2.76578L11.7476 3.10698C11.7646 3.16502 11.7694 3.18101 11.7735 3.19398C11.9305 3.68721 12.418 4.02102 12.879 4.03432H15.1191C15.4902 4.03432 15.7911 4.37643 15.7911 4.79843C15.7911 5.22045 15.4902 5.56256 15.1191 5.56256H0.783143C0.412008 5.56256 0.111145 5.22045 0.111145 4.79843Z" fill="white"/>
<path fill-rule="evenodd" clip-rule="evenodd" d="M7.59886 18.4H8.30342C10.7274 18.4 11.9395 18.4 12.7275 17.6283C13.5156 16.8566 13.5962 15.5907 13.7574 13.0588L13.9897 9.41071C14.0773 8.03698 14.121 7.35014 13.7256 6.91489C13.3303 6.47963 12.6627 6.47963 11.3276 6.47963H4.57477C3.23956 6.47963 2.57195 6.47963 2.17662 6.91489C1.78128 7.35014 1.82503 8.03698 1.91252 9.41071L2.14486 13.0588C2.30611 15.5907 2.38673 16.8566 3.17477 17.6283C3.9628 18.4 5.17483 18.4 7.59886 18.4ZM6.42348 9.85315C6.38759 9.47526 6.0674 9.19947 5.70836 9.23727C5.34933 9.27508 5.08739 9.61211 5.12328 9.99L5.55884 14.5748C5.59474 14.9527 5.9149 15.2285 6.27391 15.1907C6.63298 15.1529 6.89492 14.8158 6.85903 14.438L6.42348 9.85315ZM10.1939 9.23727C10.553 9.27508 10.8149 9.61211 10.779 9.99L10.3435 14.5748C10.3076 14.9527 9.98735 15.2285 9.62837 15.1907C9.2693 15.1529 9.00736 14.8158 9.04325 14.438L9.4788 9.85315C9.51469 9.47526 9.83491 9.19947 10.1939 9.23727Z" fill="white"/>
</svg>
